<svg width="28" height="28" viewBox="0 0 28 28" fill="none" xmlns="http://www.w3.org/2000/svg">
<g clip-path="url(#clip0_3997_2550)">
<path d="M14 28.0001C15.5446 28.0001 16.8084 26.7363 16.8084 25.1916H11.1916C11.1916 26.7363 12.4554 28.0001 14 28.0001ZM22.4253 19.5748V12.5537C22.4253 8.24279 20.1364 4.63397 16.1063 3.6791V2.72424C16.1063 1.55874 15.1655 0.61792 14 0.61792C12.8345 0.61792 11.8937 1.55874 11.8937 2.72424V3.6791C7.87763 4.63397 5.57472 8.22875 5.57472 12.5537V19.5748L2.7663 22.3832V23.7874H25.2337V22.3832L22.4253 19.5748ZM19.6169 20.979H8.38315V12.5537C8.38315 9.07128 10.5035 6.23477 14 6.23477C17.4965 6.23477 19.6169 9.07128 19.6169 12.5537V20.979ZM7.79338 2.83658L5.78536 0.828552C2.41525 3.39826 0.19659 7.35814 0 11.8516H2.80843C3.01906 8.13046 4.92879 4.87268 7.79338 2.83658ZM25.1916 11.8516H28C27.7894 7.35814 25.5707 3.39826 22.2146 0.828552L20.2207 2.83658C23.0572 4.87268 24.9809 8.13046 25.1916 11.8516Z" fill="#666666"/>
</g>
<defs>
<clipPath id="clip0_3997_2550">
<rect width="28" height="27.3821" fill="white" transform="translate(0 0.61792)"/>
</clipPath>
</defs>
</svg>
