<svg width="15" height="16" viewBox="0 0 15 16" fill="none" xmlns="http://www.w3.org/2000/svg">
<path d="M3.4998 7.2H5.0998V8.8H3.4998V7.2ZM14.6998 3.2V14.4C14.6998 15.28 13.9798 16 13.0998 16H1.8998C1.0118 16 0.299805 15.28 0.299805 14.4L0.307805 3.2C0.307805 2.32 1.0118 1.6 1.8998 1.6H2.6998V0H4.2998V1.6H10.6998V0H12.2998V1.6H13.0998C13.9798 1.6 14.6998 2.32 14.6998 3.2ZM1.8998 4.8H13.0998V3.2H1.8998V4.8ZM13.0998 14.4V6.4H1.8998V14.4H13.0998ZM9.89981 8.8H11.4998V7.2H9.89981V8.8ZM6.6998 8.8H8.2998V7.2H6.6998V8.8Z" fill="#666666"/>
</svg>
