<svg width="22" height="22" viewBox="0 0 22 22" fill="none" xmlns="http://www.w3.org/2000/svg">
<path d="M10.7651 0.530289C10.4418 0.595861 10.2026 0.773932 9.92621 1.16779C9.509 1.74893 7.01064 5.302 6.77171 5.64872C6.4295 6.15015 6.43893 6.55815 6.79979 6.93293C7.04364 7.186 7.26843 7.23765 8.117 7.23765H8.74507L8.75921 9.63743C8.77807 12.4169 8.76393 12.3233 9.21393 12.7731C9.62171 13.1761 9.767 13.2136 10.9998 13.2136C12.2326 13.2136 12.3779 13.1761 12.7856 12.7731C13.2356 12.3184 13.2215 12.4169 13.2404 9.63743L13.2545 7.23765H13.9106C14.7309 7.23765 14.9418 7.186 15.1949 6.93293C15.4807 6.64707 15.5604 6.22986 15.3918 5.90179C15.2975 5.719 11.9321 0.966146 11.8057 0.839503C11.5666 0.59586 11.1071 0.459789 10.7651 0.530289Z" fill="#666666"/>
<path d="M5.32786 8.78907C4.967 8.84072 4.56843 8.99522 4.3295 9.178C4.19814 9.27636 3.64507 10.0077 2.64671 11.3997C1.82643 12.5436 1.15614 13.4858 1.15614 13.495C1.15614 13.5042 1.29671 13.4575 1.47479 13.3919C1.76064 13.2747 1.86393 13.2606 2.63257 13.2372L3.47621 13.2139L4.42314 11.8311C4.94814 11.0716 5.42621 10.4014 5.49179 10.3405C5.61371 10.2374 5.63707 10.2374 6.809 10.2374H7.99957V8.73743L6.79486 8.74215C6.12929 8.74686 5.46843 8.76572 5.32786 8.78907Z" fill="#666666"/>
<path d="M13.9991 9.48743V10.2374H15.1897C16.3614 10.2374 16.385 10.2374 16.5067 10.3405C16.5723 10.4014 17.0551 11.0716 17.5754 11.8311L18.5268 13.2139L19.3704 13.2419C20.1204 13.2608 20.2424 13.2794 20.5282 13.3872C20.7016 13.4528 20.8424 13.4997 20.8424 13.4903C20.8424 13.4809 20.1721 12.5436 19.3518 11.3997C18.3676 10.0311 17.7909 9.27165 17.6643 9.17329C17.2001 8.82165 16.7409 8.73743 15.1848 8.73743H13.9989V9.48743H13.9991Z" fill="#666666"/>
<path d="M1.9625 14.0575C1.58279 14.1419 1.33443 14.2872 1.03443 14.6059C0.523357 15.145 0.5 15.2714 0.5 17.7184C0.5 18.9042 0.518643 19.7481 0.551643 19.9214C0.692214 20.6901 1.29693 21.2948 2.06557 21.4354C2.45921 21.5056 19.5395 21.5056 19.9334 21.4354C20.7114 21.2901 21.302 20.6995 21.4473 19.9214C21.5176 19.5464 21.5176 15.9278 21.4473 15.553C21.3067 14.7938 20.7534 14.2124 20.0084 14.0577C19.5489 13.9591 2.41229 13.9591 1.9625 14.0575ZM9.10571 16.3122C9.30264 16.4059 9.44793 16.6028 9.48543 16.8231L9.5135 16.9872H12.4852L12.518 16.7997C12.6211 16.1481 13.6383 16.0311 13.9289 16.6356C13.9897 16.7761 14.0039 16.9167 13.9897 17.4231C13.9756 17.9761 13.9664 18.0559 13.8725 18.187C13.6522 18.4917 13.7036 18.487 10.9991 18.487C8.29464 18.487 8.34607 18.4917 8.12579 18.187C8.03193 18.0511 8.02271 17.9901 8.02271 17.362C8.02271 16.7339 8.03214 16.6729 8.12579 16.537C8.32764 16.2559 8.76821 16.1528 9.10571 16.3122Z" fill="#666666"/>
</svg>
