<svg width="28" height="28" viewBox="0 0 28 28" fill="none" xmlns="http://www.w3.org/2000/svg">
<path d="M22 0H6C4.9 0 4 0.9 4 2V4C4 5.1 4.9 6 6 6H22C23.1 6 24 5.1 24 4V2C24 0.9 23.1 0 22 0ZM22 4H6V2H22V4ZM26 28H2C0.9 28 0 27.1 0 26V24H28V26C28 27.1 27.1 28 26 28ZM22.52 9.22C22.2 8.48 21.48 8 20.68 8H7.32C6.52 8 5.8 8.48 5.48 9.22L0 22H28L22.52 9.22ZM9.5 20H8.5C7.94 20 7.5 19.56 7.5 19C7.5 18.44 7.94 18 8.5 18H9.5C10.06 18 10.5 18.44 10.5 19C10.5 19.56 10.06 20 9.5 20ZM9.5 16H8.5C7.94 16 7.5 15.56 7.5 15C7.5 14.44 7.94 14 8.5 14H9.5C10.06 14 10.5 14.44 10.5 15C10.5 15.56 10.06 16 9.5 16ZM9.5 12H8.5C7.94 12 7.5 11.56 7.5 11C7.5 10.44 7.94 10 8.5 10H9.5C10.06 10 10.5 10.44 10.5 11C10.5 11.56 10.06 12 9.5 12ZM14.5 20H13.5C12.94 20 12.5 19.56 12.5 19C12.5 18.44 12.94 18 13.5 18H14.5C15.06 18 15.5 18.44 15.5 19C15.5 19.56 15.06 20 14.5 20ZM14.5 16H13.5C12.94 16 12.5 15.56 12.5 15C12.5 14.44 12.94 14 13.5 14H14.5C15.06 14 15.5 14.44 15.5 15C15.5 15.56 15.06 16 14.5 16ZM14.5 12H13.5C12.94 12 12.5 11.56 12.5 11C12.5 10.44 12.94 10 13.5 10H14.5C15.06 10 15.5 10.44 15.5 11C15.5 11.56 15.06 12 14.5 12ZM19.5 20H18.5C17.94 20 17.5 19.56 17.5 19C17.5 18.44 17.94 18 18.5 18H19.5C20.06 18 20.5 18.44 20.5 19C20.5 19.56 20.06 20 19.5 20ZM19.5 16H18.5C17.94 16 17.5 15.56 17.5 15C17.5 14.44 17.94 14 18.5 14H19.5C20.06 14 20.5 14.44 20.5 15C20.5 15.56 20.06 16 19.5 16ZM19.5 12H18.5C17.94 12 17.5 11.56 17.5 11C17.5 10.44 17.94 10 18.5 10H19.5C20.06 10 20.5 10.44 20.5 11C20.5 11.56 20.06 12 19.5 12Z" fill="#1155CC"/>
</svg>
