<svg width="12" height="17" viewBox="0 0 12 17" fill="none" xmlns="http://www.w3.org/2000/svg">
<path d="M5.81818 13.5909C5.01818 13.5909 4.36364 14.2455 4.36364 15.0455C4.36364 15.8455 5.01818 16.5 5.81818 16.5C6.61818 16.5 7.27273 15.8455 7.27273 15.0455C7.27273 14.2455 6.61818 13.5909 5.81818 13.5909ZM1.45455 0.5C0.654545 0.5 0 1.15455 0 1.95455C0 2.75455 0.654545 3.40909 1.45455 3.40909C2.25455 3.40909 2.90909 2.75455 2.90909 1.95455C2.90909 1.15455 2.25455 0.5 1.45455 0.5ZM1.45455 4.86364C0.654545 4.86364 0 5.51818 0 6.31818C0 7.11818 0.654545 7.77273 1.45455 7.77273C2.25455 7.77273 2.90909 7.11818 2.90909 6.31818C2.90909 5.51818 2.25455 4.86364 1.45455 4.86364ZM1.45455 9.22727C0.654545 9.22727 0 9.88182 0 10.6818C0 11.4818 0.654545 12.1364 1.45455 12.1364C2.25455 12.1364 2.90909 11.4818 2.90909 10.6818C2.90909 9.88182 2.25455 9.22727 1.45455 9.22727ZM10.1818 3.40909C10.9818 3.40909 11.6364 2.75455 11.6364 1.95455C11.6364 1.15455 10.9818 0.5 10.1818 0.5C9.38182 0.5 8.72727 1.15455 8.72727 1.95455C8.72727 2.75455 9.38182 3.40909 10.1818 3.40909ZM5.81818 9.22727C5.01818 9.22727 4.36364 9.88182 4.36364 10.6818C4.36364 11.4818 5.01818 12.1364 5.81818 12.1364C6.61818 12.1364 7.27273 11.4818 7.27273 10.6818C7.27273 9.88182 6.61818 9.22727 5.81818 9.22727ZM10.1818 9.22727C9.38182 9.22727 8.72727 9.88182 8.72727 10.6818C8.72727 11.4818 9.38182 12.1364 10.1818 12.1364C10.9818 12.1364 11.6364 11.4818 11.6364 10.6818C11.6364 9.88182 10.9818 9.22727 10.1818 9.22727ZM10.1818 4.86364C9.38182 4.86364 8.72727 5.51818 8.72727 6.31818C8.72727 7.11818 9.38182 7.77273 10.1818 7.77273C10.9818 7.77273 11.6364 7.11818 11.6364 6.31818C11.6364 5.51818 10.9818 4.86364 10.1818 4.86364ZM5.81818 4.86364C5.01818 4.86364 4.36364 5.51818 4.36364 6.31818C4.36364 7.11818 5.01818 7.77273 5.81818 7.77273C6.61818 7.77273 7.27273 7.11818 7.27273 6.31818C7.27273 5.51818 6.61818 4.86364 5.81818 4.86364ZM5.81818 0.5C5.01818 0.5 4.36364 1.15455 4.36364 1.95455C4.36364 2.75455 5.01818 3.40909 5.81818 3.40909C6.61818 3.40909 7.27273 2.75455 7.27273 1.95455C7.27273 1.15455 6.61818 0.5 5.81818 0.5Z" fill="#666666"/>
</svg>
