<svg width="22" height="22" viewBox="0 0 22 22" fill="none" xmlns="http://www.w3.org/2000/svg">
<path d="M16.6538 19.8846H2.11538V5.34615H11.8077V3.73077H2.11538C1.22692 3.73077 0.5 4.45769 0.5 5.34615V19.8846C0.5 20.7731 1.22692 21.5 2.11538 21.5H16.6538C17.5423 21.5 18.2692 20.7731 18.2692 19.8846V10.1923H16.6538V19.8846Z" fill="#666666"/>
<path d="M5.34615 8.57692V10.1923H13.4231V8.57692H5.34615Z" fill="#666666"/>
<path d="M13.4231 11.8077H5.34615V13.4231H13.4231V11.8077Z" fill="#666666"/>
<path d="M13.4231 15.0385H5.34615V16.6538H13.4231V15.0385Z" fill="#666666"/>
<path d="M18.2692 0.5H16.6538V3.73077H13.4231V5.34615H16.6538V8.57692H18.2692V5.34615H21.5V3.73077H18.2692V0.5Z" fill="#666666"/>
</svg>
