<svg width="28" height="28" viewBox="0 0 28 28" fill="none" xmlns="http://www.w3.org/2000/svg">
<g clip-path="url(#clip0_3997_2578)">
<path d="M20.3624 15.4048C21.4121 15.4048 22.3357 14.831 22.8115 13.9633L27.8217 4.88069C28.3395 3.95703 27.6677 2.80946 26.6041 2.80946H5.89181L4.5763 0.010498H0V2.80946H2.79896L7.83709 13.4315L5.94779 16.8462C4.92617 18.7215 6.26967 21.0027 8.39688 21.0027H25.1906V18.2037H8.39688L9.93631 15.4048H20.3624ZM7.22132 5.60842H24.225L20.3624 12.6058H10.5381L7.22132 5.60842ZM8.39688 22.4022C6.85745 22.4022 5.61192 23.6617 5.61192 25.2011C5.61192 26.7406 6.85745 28.0001 8.39688 28.0001C9.93631 28.0001 11.1958 26.7406 11.1958 25.2011C11.1958 23.6617 9.93631 22.4022 8.39688 22.4022ZM22.3917 22.4022C20.8523 22.4022 19.6067 23.6617 19.6067 25.2011C19.6067 26.7406 20.8523 28.0001 22.3917 28.0001C23.9311 28.0001 25.1906 26.7406 25.1906 25.2011C25.1906 23.6617 23.9311 22.4022 22.3917 22.4022Z" fill="#666666"/>
</g>
<defs>
<clipPath id="clip0_3997_2578">
<rect width="28" height="27.9896" fill="white" transform="translate(0 0.010498)"/>
</clipPath>
</defs>
</svg>
