<svg width="22" height="20" viewBox="0 0 22 20" fill="none" xmlns="http://www.w3.org/2000/svg">
<path d="M18.35 5.80005H17.3V0.550049H4.7V5.80005H3.65C1.907 5.80005 0.5 7.20705 0.5 8.95005V15.25H4.7V19.45H17.3V15.25H21.5V8.95005C21.5 7.20705 20.093 5.80005 18.35 5.80005ZM6.8 2.65005H15.2V5.80005H6.8V2.65005ZM15.2 15.25V17.35H6.8V13.15H15.2V15.25ZM17.3 13.15V11.05H4.7V13.15H2.6V8.95005C2.6 8.37255 3.0725 7.90005 3.65 7.90005H18.35C18.9275 7.90005 19.4 8.37255 19.4 8.95005V13.15H17.3Z" fill="#666666"/>
</svg>
